<?xml version="1.0" encoding="UTF-8" standalone="no"?>
<svg version="1.1" width="512" height="512" x="0" y="0" viewBox="0 0 512 512" style="enable-background:new 0 0 512 512"
  xml:space="preserve" class="" id="svg44" sodipodi:docname="robot3.svg" inkscape:version="1.1 (c68e22c387, 2021-05-23)"
  inkscape:label="Layer" xmlns:inkscape="http://www.inkscape.org/namespaces/inkscape"
  xmlns:sodipodi="http://sodipodi.sourceforge.net/DTD/sodipodi-0.dtd" xmlns:xlink="http://www.w3.org/1999/xlink"
  xmlns="http://www.w3.org/2000/svg" xmlns:svg="http://www.w3.org/2000/svg"
  xmlns:rdf="http://www.w3.org/1999/02/22-rdf-syntax-ns#" xmlns:cc="http://creativecommons.org/ns#"
  xmlns:dc="http://purl.org/dc/elements/1.1/">
  <title id="title5869">RiskyBOT Icon</title>
  <defs id="defs48">
    <linearGradient inkscape:collect="always" id="linearGradient13306">
      <stop style="stop-color:#ce3a36;stop-opacity:1" offset="0" id="stop13302" />
      <stop style="stop-color:#ce3a36;stop-opacity:0.89999998" offset="1" id="stop13304" />
    </linearGradient>
    <linearGradient inkscape:collect="always" id="linearGradient12564-4">
      <stop style="stop-color:#e5403c;stop-opacity:1" offset="0" id="stop12560" />
      <stop style="stop-color:#e5403c;stop-opacity:1" offset="1" id="stop12562" />
    </linearGradient>
    <linearGradient inkscape:collect="always" xlink:href="#linearGradient12564-4" id="linearGradient12566" x1="0"
      y1="256" x2="512" y2="256" gradientUnits="userSpaceOnUse" />
    <linearGradient inkscape:collect="always" xlink:href="#linearGradient13306" id="linearGradient13308" x1="73.124214"
      y1="84.937973" x2="432.80405" y2="434.24872" gradientUnits="userSpaceOnUse" />
  </defs>
  <sodipodi:namedview id="namedview46" pagecolor="#505050" bordercolor="#ffffff" borderopacity="1"
    inkscape:pageshadow="0" inkscape:pageopacity="0" inkscape:pagecheckerboard="1" showgrid="false" inkscape:zoom="1"
    inkscape:cx="-73.5" inkscape:cy="281.5" inkscape:window-width="1920" inkscape:window-height="991"
    inkscape:window-x="-9" inkscape:window-y="-9" inkscape:window-maximized="1" inkscape:current-layer="g42" />
  <g id="g1677" inkscape:label="bottom">
    <g fill="#ffffff" id="g1595" inkscape:label="both">
      <path
        d="M 512,255.63 V 256 c 0,-37.89461 -0.43,17.11 -1.26,25.5 -1.88,19.03 -5.84,37.44 -11.66,55.01 C 469.39,426.2 391.45,493.92 296,508.89 c -12.71,1.99 -25.74,3.05 -39,3.1 -0.33,0.01 -0.67,0.01 -1,0.01 -2.34,0 -4.67,-0.03 -7,-0.09 -12.18,-0.33 -24.14,-1.5 -35.84,-3.48 C 92.18,488.05 0,382.78 0,256 0,114.62 114.62,0 256,0 c 131.21,0 239.37,98.72 254.25,225.93 1.14,9.74 1.74,19.65 1.75,29.7 z"
        fill="#e5403c" data-original="#fd9e27" id="path1583" style="fill:url(#linearGradient12566);fill-opacity:1"
        sodipodi:nodetypes="csccccsccsscc" inkscape:label="path - outside gradient" />
      <path
        d="M 512,255.63 V 256 c 0,8.6 -0.43,17.11 -1.26,25.5 -1.88,19.03 -5.84,37.44 -11.66,55.01 C 469.39,426.2 391.45,493.92 296,508.89 c -12.71,1.99 -25.74,3.05 -39,3.1 -0.33,0.01 -0.67,0.01 -1,0.01 -2.34,0 -4.67,-0.03 -7,-0.09 -12.18,-0.33 -24.14,-1.5 -35.84,-3.48 C 213.01,508.28 71.71,366.98 71.71,366.98 l 13.16,-62.03 26.49,-52.38 h 34.8 L 194.14,223.3 155.44,184.58 357.8,82.14 c 0,0 74.33,74.32 74.5,74.48 l 10.26,1.62 67.69,67.69 c 1.14,9.74 1.74,19.65 1.75,29.7 z"
        fill="#cd3936" data-original="#da7d00" id="path1581"
        style="display:inline;fill:url(#linearGradient13308);fill-opacity:1" inkscape:label="path - shadow gradient" />
    </g>
    <g id="g1627" inkscape:label="left">
      <path d="m 110.238,321.74 v -43.805 h 39.968 V 252.567 H 110.238 85.29 84.871 v 69.173 z" fill="#06465e"
        data-original="#06465e" id="path1617" inkscape:label="path - arm" />
    </g>
    <g id="g1615" inkscape:label="right">
      <path d="m 403.037,202.476 v 43.805 H 363.07 v 25.368 h 39.967 24.949 0.419 v -69.173 z" fill="#06465e"
        data-original="#06465e" id="path1607" inkscape:label="path - arm" />
    </g>
  </g>
  <g id="g42" inkscape:label="top" inkscape:groupmode="layer">
    <g fill="#ffffff" id="g22" inkscape:label="both">
      <g id="g1574" inkscape:label="both 1">
        <path d="m 226.143,174.795 v 72.159 6.275 150 h 60 v -150 -6.275 -72.159 z" fill="#06465e"
          data-original="#06465e" class="" id="path6" mask="none" inkscape:label="path - neck" />
        <path
          d="m 336.143,192.881 h -160 c -16.569,0 -30,-13.431 -30,-30 v -60 c 0,-16.569 13.431,-30 30,-30 h 160 c 16.569,0 30,13.431 30,30 v 60 c 0,16.569 -13.431,30 -30,30 z"
          fill="#ffffff" data-original="#ffffff" class="" id="path20" inkscape:label="path - head" />
        <path
          d="m 333.748,429.119 h -154.11 c -12.672,0 -22.945,-10.273 -22.945,-22.945 0,-12.672 10.273,-22.945 22.945,-22.945 h 154.11 c 12.672,0 22.945,10.273 22.945,22.945 -10e-4,12.672 -10.273,22.945 -22.945,22.945 z"
          fill="#ffffff" data-original="#ffffff" class="" id="path30" inkscape:label="path - feet" />
        <path
          d="m 336.143,353.295 h -160 c -16.569,0 -30,-13.431 -30,-30 v -70 c 0,-16.569 13.431,-30 30,-30 h 160 c 16.569,0 30,13.431 30,30 v 70 c 0,16.569 -13.431,30 -30,30 z"
          fill="#ffffff" data-original="#ffffff" class="" id="path26" clip-path="none"
          inkscape:label="path - midbody" />
      </g>
    </g>
    <g id="g13539" inkscape:label="right">
      <g id="g1327" inkscape:label="shadowed">
        <path d="m 256,174.795 v 228.434 h 30.143 v -150 -6.275 -72.159 z" fill="#022b3a" data-original="#022b3a"
          class="" id="path8" inkscape:label="path - neck" />
        <path
          d="M 336.143,72.881 H 256 v 120 h 80.143 c 16.568,0 30,-13.431 30,-30 v -60 c 0,-16.568 -13.431,-30 -30,-30 z"
          fill="#eaeaea" data-original="#eaeaea" class="" id="path24" inkscape:label="path - head" />
        <path
          d="M 333.748,383.229 H 256 v 45.89 h 77.748 c 12.672,0 22.945,-10.273 22.945,-22.945 -10e-4,-12.672 -10.273,-22.945 -22.945,-22.945 z"
          fill="#eaeaea" data-original="#eaeaea" class="" id="path32" inkscape:label="path - feet" />
        <path
          d="M 336.143,223.295 H 256 v 130 h 80.143 c 16.568,0 30,-13.432 30,-30 v -70 c 0,-16.568 -13.431,-30 -30,-30 z"
          fill="#eaeaea" data-original="#eaeaea" class="" id="path28" inkscape:label="path - midbody" />
      </g>
      <path
        d="m 434.377,151.817 -6.821,15.752 -2.619,6.049 c 2.934,2.568 4.799,6.33 4.799,10.526 0,7.72 -6.28,14 -14,14 -7.72,0 -14,-6.281 -14,-14 0,-4.196 1.865,-7.958 4.799,-10.526 l -2.619,-6.049 -6.821,-15.752 c -11.162,6.462 -18.693,18.527 -18.693,32.326 0,20.586 16.748,37.334 37.334,37.334 20.586,0 37.334,-16.748 37.334,-37.334 0,-13.798 -7.531,-25.864 -18.693,-32.326 z"
        fill="#eaeaea" data-original="#eaeaea" class="" id="path12" inkscape:label="path - hand" />
      <circle cx="306.14301" cy="132.881" fill="#06465e" r="27.5" data-original="#06465e" class="" id="circle34"
        inkscape:label="circle - innter eye" />
      <path
        d="m 306.144,172.881 c -22.056,0 -40,-17.944 -40,-40 0,-22.056 17.944,-40 40,-40 22.056,0 40,17.944 40,40 0,22.056 -17.945,40 -40,40 z m 0,-55 c -8.271,0 -15,6.729 -15,15 0,8.271 6.729,15 15,15 8.271,0 15,-6.729 15,-15 0,-8.271 -6.729,-15 -15,-15 z"
        fill="#2284ec" data-original="#2284ec" class="" id="path36" inkscape:label="path - outer eye" />
    </g>
    <g id="g13927" inkscape:label="left">
      <circle cx="97.540001" cy="265.086" r="18.667" fill="#ffffff" data-original="#ffffff" class="" id="circle16"
        sodipodi:insensitive="true" inkscape:label="circle - arm mid" />
      <path
        d="m 78.899,372.399 6.821,-15.751 2.619,-6.049 c -2.934,-2.568 -4.799,-6.33 -4.799,-10.526 0,-7.72 6.28,-14 14,-14 7.72,0 14,6.281 14,14 0,4.196 -1.865,7.958 -4.799,10.526 l 2.619,6.049 6.821,15.751 c 11.162,-6.462 18.693,-18.527 18.693,-32.326 0,-20.586 -16.748,-37.334 -37.334,-37.334 -20.586,0 -37.334,16.748 -37.334,37.334 0,13.798 7.531,25.864 18.693,32.326 z"
        fill="#ffffff" data-original="#ffffff" class="" id="path18" inkscape:label="path - hand" />
      <circle cx="206.14301" cy="132.881" fill="#06465e" r="27.5" data-original="#06465e" class="" id="circle38"
        inkscape:label="circle - inner eye" />
      <path
        d="m 206.144,172.881 c -22.056,0 -40,-17.944 -40,-40 0,-22.056 17.944,-40 40,-40 22.056,0 40,17.944 40,40 0,22.056 -17.945,40 -40,40 z m 0,-55 c -8.271,0 -15,6.729 -15,15 0,8.271 6.729,15 15,15 8.271,0 15,-6.729 15,-15 0,-8.271 -6.729,-15 -15,-15 z"
        fill="#27ade5" data-original="#27ade5" class="" id="path40" inkscape:label="path - outer eye" />
    </g>
  </g>
  <metadata id="metadata5867">
    <rdf:RDF>
      <cc:Work rdf:about="">
        <dc:title>RiskyBOT Icon</dc:title>
        <dc:source>https://www.flaticon.com/free-icon/robot_2021646</dc:source>
        <dc:creator>
          <cc:Agent>
            <dc:title>Freepik</dc:title>
          </cc:Agent>
        </dc:creator>
        <dc:description>I (RiskyMH) am using a FlatIcon for my Discord bot's icon (called RiskyBOT).</dc:description>
        <cc:license rdf:resource="https://www.freepikcompany.com/legal#nav-flaticon" />
      </cc:Work>
    </rdf:RDF>
  </metadata>
</svg>